<svg xmlns="http://www.w3.org/2000/svg" viewBox="0 0 500 120">
    <!-- Icono Fragata Estilizado (Aproximación Vectorial) -->
    <path d="M50 85 L65 55 L35 60 L20 75 L30 100 L45 80 L50 85 Z M65 55 C65 55 90 40 120 30 C110 35 90 45 85 55 L65 55 Z M50 85 L60 110 L80 90 L50 85 Z M60 35 L40 45 L50 60 L65 50 L110 25 L60 35 Z" fill="#000000" stroke="#000000" stroke-width="2" stroke-linejoin="round"/>
    
    <!-- Intento 2 de silueta más fiel -->
    <path d="M20,60 L50,45 L110,25 L60,50 L50,60 L40,80 L25,95 L35,65 Z M50,60 L70,85 L45,75 Z" fill="none"/>
    
    <!-- Path refinado basado en forma visual común -->
    <path d="M25,65 Q30,50 60,40 L120,20 L70,50 Q60,55 55,65 Q50,75 45,95 L35,110 L40,85 Q35,80 25,65 Z M70,50 L65,70 L90,60 L70,50" fill="#000000"/>

    <!-- Texto FRIGATE - Fuente Gruesa y Condensed -->
    <text x="140" y="85" font-family="Impact, Haettenschweiler, 'Arial Narrow Bold', sans-serif" font-weight="bold" font-size="80" fill="#000000" letter-spacing="1">FRIGATE</text>
</svg>
